<svg width="34" height="37" viewBox="0 0 34 37" fill="none" xmlns="http://www.w3.org/2000/svg">
<path d="M14.4487 0C18.281 0 21.6299 0.776813 24.4955 2.33044C27.3956 3.84954 29.6225 5.99009 31.1761 8.7521C32.7297 11.5141 33.5065 14.6731 33.5065 18.2292C33.5065 21.7508 32.7125 24.8926 31.1243 27.6546C29.5707 30.4166 27.3438 32.5916 24.4437 34.1798C21.5781 35.7334 18.2465 36.5102 14.4487 36.5102H0V0H14.4487ZM13.6719 27.551C16.6411 27.551 18.9715 26.7396 20.6632 25.117C22.355 23.4943 23.2008 21.1984 23.2008 18.2292C23.2008 15.2255 22.355 12.9124 20.6632 11.2897C18.9715 9.63249 16.6411 8.80389 13.6719 8.80389H10.1504V27.551H13.6719Z" fill="#ECF230"/>
</svg>
