<svg width="256" height="37" viewBox="0 0 256 37" fill="none" xmlns="http://www.w3.org/2000/svg">
<path d="M255.06 0.700001V35.8H252.81V18.8H232.31V35.8H230.06V0.700001H232.31V16.9H252.81V0.700001H255.06Z" fill="white"/>
<path d="M190.183 18.3C190.183 14.8333 190.9 11.75 192.333 9.05C193.8 6.31667 195.8 4.18334 198.333 2.65C200.9 1.11667 203.767 0.350002 206.933 0.350002C210.933 0.350002 214.3 1.28334 217.033 3.15C219.767 5.01667 221.767 7.63334 223.033 11H220.433C219.433 8.33334 217.767 6.23334 215.433 4.7C213.133 3.13334 210.3 2.35 206.933 2.35C204.233 2.35 201.783 3 199.583 4.3C197.383 5.56667 195.65 7.41667 194.383 9.85C193.117 12.25 192.483 15.0667 192.483 18.3C192.483 21.5 193.117 24.3 194.383 26.7C195.65 29.0667 197.383 30.9 199.583 32.2C201.783 33.5 204.233 34.15 206.933 34.15C210.3 34.15 213.133 33.3833 215.433 31.85C217.767 30.2833 219.433 28.1667 220.433 25.5H223.033C221.767 28.8667 219.767 31.4833 217.033 33.35C214.3 35.2167 210.933 36.15 206.933 36.15C203.767 36.15 200.9 35.4 198.333 33.9C195.8 32.3667 193.8 30.25 192.333 27.55C190.9 24.8167 190.183 21.7333 190.183 18.3Z" fill="white"/>
<path d="M169.273 2.6V17.25H183.273V19.15H169.273V33.9H184.773V35.8H167.023V0.700001H184.773V2.6H169.273Z" fill="white"/>
<path d="M161.667 0.700001V2.6H151.667V35.8H149.417V2.6H139.417V0.700001H161.667Z" fill="white"/>
<path d="M137.03 12.3C137.03 14.4333 136.53 16.3833 135.53 18.15C134.563 19.8833 133.08 21.2833 131.08 22.35C129.113 23.3833 126.696 23.9 123.83 23.9H118.98V35.8H109.18V0.549999H123.83C126.663 0.549999 129.063 1.05 131.03 2.05C133.03 3.05 134.53 4.43333 135.53 6.2C136.53 7.96667 137.03 10 137.03 12.3ZM122.88 16.1C125.646 16.1 127.03 14.8333 127.03 12.3C127.03 9.73333 125.646 8.45 122.88 8.45H118.98V16.1H122.88Z" fill="white"/>
<path d="M86.7242 36.15C83.4242 36.15 80.3909 35.3833 77.6242 33.85C74.8576 32.2833 72.6576 30.1333 71.0242 27.4C69.4242 24.6333 68.6242 21.5167 68.6242 18.05C68.6242 14.5833 69.4242 11.4833 71.0242 8.75C72.6576 5.98334 74.8576 3.83334 77.6242 2.3C80.3909 0.766671 83.4242 3.8147e-06 86.7242 3.8147e-06C90.0576 3.8147e-06 93.0909 0.766671 95.8242 2.3C98.5909 3.83334 100.774 5.98334 102.374 8.75C103.974 11.4833 104.774 14.5833 104.774 18.05C104.774 21.5167 103.974 24.6333 102.374 27.4C100.774 30.1333 98.5909 32.2833 95.8242 33.85C93.0576 35.3833 90.0242 36.15 86.7242 36.15ZM86.7242 27.05C89.2242 27.05 91.1909 26.2333 92.6242 24.6C94.0909 22.9667 94.8242 20.7833 94.8242 18.05C94.8242 15.25 94.0909 13.05 92.6242 11.45C91.1909 9.81667 89.2242 9 86.7242 9C84.1909 9 82.2076 9.81667 80.7742 11.45C79.3409 13.05 78.6242 15.25 78.6242 18.05C78.6242 20.8167 79.3409 23.0167 80.7742 24.65C82.2076 26.25 84.1909 27.05 86.7242 27.05Z" fill="white"/>
<path d="M54.6176 35.8L47.6176 22.8H46.5676V35.8H36.7676V0.549999H52.2176C55.0509 0.549999 57.4509 1.05 59.4176 2.05C61.3842 3.01667 62.8676 4.36667 63.8676 6.1C64.8676 7.8 65.3676 9.71667 65.3676 11.85C65.3676 14.25 64.7009 16.3667 63.3676 18.2C62.0676 20 60.1509 21.2833 57.6176 22.05L65.5676 35.8H54.6176ZM46.5676 16.1H51.4176C52.7509 16.1 53.7509 15.7833 54.4176 15.15C55.0842 14.5167 55.4176 13.6 55.4176 12.4C55.4176 11.2667 55.0676 10.3833 54.3676 9.75C53.7009 9.08333 52.7176 8.75 51.4176 8.75H46.5676V16.1Z" fill="white"/>
<path d="M13.95 0.549999C17.65 0.549999 20.8833 1.3 23.65 2.8C26.45 4.26667 28.6 6.33333 30.1 9C31.6 11.6667 32.35 14.7167 32.35 18.15C32.35 21.55 31.5833 24.5833 30.05 27.25C28.55 29.9167 26.4 32.0167 23.6 33.55C20.8333 35.05 17.6167 35.8 13.95 35.8H0V0.549999H13.95ZM13.2 27.15C16.0667 27.15 18.3167 26.3667 19.95 24.8C21.5833 23.2333 22.4 21.0167 22.4 18.15C22.4 15.25 21.5833 13.0167 19.95 11.45C18.3167 9.85 16.0667 9.05 13.2 9.05H9.8V27.15H13.2Z" fill="white"/>
</svg>
