<svg width="90" height="27" viewBox="0 0 90 27" fill="none" xmlns="http://www.w3.org/2000/svg">
<path d="M22.4563 2.24707C22.5681 2.24707 22.7258 2.29826 22.9287 2.40003C23.1315 2.50242 23.2329 2.7738 23.2329 3.21418V21.4905C23.2329 22.8363 23.0388 23.7572 22.6516 24.2536C22.262 24.7884 21.661 25.0554 20.8484 25.0554H18.8249C18.4552 25.0554 18.141 25.0283 17.8825 24.9741C17.7538 24.9364 17.624 24.8945 17.4942 24.8482C17.3656 24.8026 17.2455 24.7421 17.1355 24.6681C16.9128 24.5398 16.7087 24.3376 16.5245 24.0612C16.4317 23.9317 16.3303 23.7843 16.2203 23.6196C16.1096 23.4537 15.9988 23.2595 15.8888 23.0374L7.10002 7.49954C7.08146 7.46377 7.06353 7.44156 7.04561 7.43293C7.02705 7.42307 7.01839 7.41813 7.01839 7.41813H6.87987C6.87987 7.41813 6.87987 7.42307 6.87987 7.43293C6.87987 7.44156 6.87987 7.45452 6.87987 7.4724V24.0884C6.87987 24.5127 6.78216 24.7803 6.58798 24.8901C6.39319 25.0006 6.23178 25.0554 6.10316 25.0554H3.63449C3.50586 25.0554 3.33889 25.0006 3.13482 24.8901C2.93198 24.7803 2.83057 24.5127 2.83057 24.0884V5.8145C2.83057 4.46932 3.02474 3.53861 3.41433 3.02175C3.82001 2.5055 4.41986 2.24707 5.21513 2.24707H7.29543C7.47972 2.24707 7.65473 2.25201 7.81984 2.26187C7.98619 2.27051 8.13461 2.28408 8.26509 2.30382C8.56008 2.35809 8.81919 2.46849 9.04181 2.63441C9.2261 2.76455 9.42028 2.97672 9.62311 3.27093C9.71525 3.39921 9.81172 3.54662 9.91252 3.71253C10.0146 3.87907 10.1209 4.06287 10.2316 4.26517L18.9932 19.803C19.0111 19.8591 19.0383 19.8868 19.0747 19.8868H19.2133C19.2133 19.8672 19.2133 19.8572 19.2133 19.8572C19.2133 19.8572 19.2133 19.8487 19.2133 19.8301V3.21418C19.2133 2.7738 19.3104 2.50242 19.5051 2.40003C19.6994 2.29826 19.8613 2.24707 19.9901 2.24707H22.4563Z" fill="white"/>
<path d="M42.3292 15.5448L47.1256 23.8391C47.2357 23.9693 47.2727 24.1815 47.2368 24.4756C47.1985 24.8624 46.9857 25.0554 46.5986 25.0554H43.6056C43.3285 25.0554 43.1338 25.0006 43.0218 24.8901C42.9111 24.7982 42.8097 24.6694 42.7176 24.5029L38.3937 16.9288C38.098 16.3749 37.7933 16.0154 37.4785 15.8507C37.1649 15.6669 36.6659 15.5744 35.9819 15.5744H33.1818V24.0884C33.1818 24.5127 33.0804 24.7803 32.8776 24.8901C32.6746 25.0006 32.517 25.0554 32.405 25.0554H29.8547C29.7441 25.0554 29.5827 25.0006 29.3699 24.8901C29.1572 24.7803 29.0508 24.5127 29.0508 24.0884V3.21418C29.0508 2.7738 29.1572 2.50242 29.3699 2.40003C29.5827 2.29826 29.7441 2.24707 29.8547 2.24707H32.405C32.517 2.24707 32.6746 2.29826 32.8776 2.40003C33.0804 2.50242 33.1818 2.7738 33.1818 3.21418V11.4815H35.732C35.9163 11.4815 36.0821 11.4777 36.2293 11.4691C36.3777 11.4592 36.5075 11.4457 36.62 11.4272C36.8409 11.3896 37.0344 11.3334 37.2014 11.2594C37.3677 11.1675 37.5155 11.0392 37.6441 10.8745C37.7183 10.7826 37.7963 10.6766 37.8792 10.5563C37.9633 10.4366 38.0425 10.3114 38.1167 10.1813L42.302 2.79971C42.3762 2.65353 42.4776 2.52463 42.6062 2.41237C42.7163 2.30259 42.9204 2.24707 43.2172 2.24707H45.9605C46.2931 2.24707 46.5059 2.40436 46.5986 2.71829C46.6345 2.95698 46.6067 3.1784 46.5146 3.38195L41.9408 11.3976C41.6638 11.8601 41.4146 12.2752 41.1938 12.6435C41.101 12.7717 41.0132 12.8963 40.9291 13.016C40.8462 13.1362 40.7591 13.2516 40.667 13.3613C40.944 13.6199 41.221 13.9331 41.4981 14.3014C41.7751 14.6701 42.0521 15.0846 42.3292 15.5448Z" fill="white"/>
<path d="M86.5285 1.94434C86.7511 1.94434 86.9033 1.9906 86.986 2.0825C87.0702 2.17501 87.1209 2.26691 87.1395 2.35881C87.1938 2.54323 87.1747 2.76465 87.0826 3.02246L80.9035 22.1523C80.496 23.1676 80.0885 23.8498 79.6816 24.2001C79.6271 24.2364 79.5665 24.2827 79.501 24.3383C79.4366 24.3925 79.3581 24.4388 79.266 24.4764C78.7119 24.8631 78.0743 25.0561 77.3538 25.0561C76.5969 25.0561 75.908 24.8262 75.2884 24.3654C74.6699 23.9053 74.2594 23.3156 74.0566 22.5964C74.0367 22.541 74.0082 22.4756 73.9724 22.4016C73.9359 22.3276 73.8989 22.2548 73.8611 22.1819L70.0368 9.43694L65.9332 22.1523C65.7304 22.6693 65.5263 23.0936 65.3222 23.4254C65.1194 23.7579 64.9165 24.0163 64.7137 24.2001C64.6395 24.2364 64.5739 24.2827 64.5182 24.3383C64.4638 24.3925 64.3902 24.4388 64.2981 24.4764C63.744 24.8631 63.1065 25.0561 62.386 25.0561C61.6272 25.0561 60.9389 24.8262 60.3205 24.3654C59.7022 23.9053 59.2903 23.3156 59.0862 22.5964C59.0676 22.541 59.0399 22.4756 59.0021 22.4016C58.9656 22.3276 58.9291 22.2548 58.8932 22.1819L53.1545 3.02246C53.0617 2.80043 53.0438 2.57962 53.1001 2.35881C53.118 2.2848 53.1643 2.19784 53.2385 2.0973C53.3127 1.99553 53.46 1.94434 53.6813 1.94434H56.6473C57.0362 1.94434 57.304 2.14665 57.4511 2.55124L62.3019 19.1672C62.3019 19.1857 62.3056 19.1993 62.3143 19.2091C62.3241 19.2191 62.3291 19.2239 62.3291 19.2239L62.4404 19.1943C62.4404 19.1943 62.4404 19.1906 62.4404 19.182C62.4404 19.1722 62.4504 19.1585 62.4701 19.1401L67.7067 2.55124C67.8732 2.14665 68.1409 1.94434 68.5106 1.94434H71.6447C72.014 1.94434 72.2718 2.14665 72.419 2.55124L77.2722 19.1672C77.2722 19.1857 77.2759 19.1993 77.2846 19.2091C77.2944 19.2191 77.2994 19.2239 77.2994 19.2239L77.4108 19.1943C77.4108 19.1943 77.4108 19.1906 77.4108 19.182C77.4108 19.1722 77.4195 19.1585 77.438 19.1401L82.6771 2.55124C82.8434 2.14665 83.1112 1.94434 83.481 1.94434H86.5285Z" fill="white"/>
</svg>
