<svg width="863" height="835" viewBox="0 0 863 835" fill="none" xmlns="http://www.w3.org/2000/svg">
<path d="M774.394 198.513C822.296 268.039 850.572 337.145 859.224 405.833C868.905 474.71 858.9 539.164 829.209 599.193C799.938 659.833 752.674 712.633 687.418 757.593C622.161 802.554 555.989 827.91 488.9 833.661C422.842 839.601 359.357 825.781 298.446 792.2C238.566 758.808 184.674 707.35 136.772 637.824L-5.39132e-05 439.311L637.621 0L774.394 198.513ZM205.383 590.553C262.109 672.885 327.039 720.785 400.174 734.253C473.918 747.3 550.127 726.721 628.801 672.516C708.084 617.891 754.859 553.286 769.126 478.701C783.813 404.727 763.004 326.878 706.698 245.155L627.282 129.889L125.967 475.287L205.383 590.553Z" fill="white" fill-opacity="0.51"/>
</svg>
