<svg width="78" height="78" viewBox="0 0 78 78" fill="none" xmlns="http://www.w3.org/2000/svg">
<path d="M46.3125 29.25L31.6875 29.25C31.041 29.25 30.421 29.5068 29.9639 29.9639C29.5068 30.421 29.25 31.041 29.25 31.6875L29.25 46.3125C29.25 46.959 29.5068 47.579 29.9639 48.0361C30.421 48.4932 31.041 48.75 31.6875 48.75L46.3125 48.75C46.959 48.75 47.579 48.4932 48.0361 48.0361C48.4932 47.579 48.75 46.959 48.75 46.3125L48.75 31.6875C48.75 31.041 48.4932 30.421 48.0361 29.9639C47.579 29.5068 46.959 29.25 46.3125 29.25ZM43.875 43.875L34.125 43.875L34.125 34.125L43.875 34.125L43.875 43.875ZM70.6875 43.875L65.8125 43.875L65.8125 34.125L70.6875 34.125C71.334 34.125 71.954 33.8682 72.4111 33.4111C72.8682 32.954 73.125 32.334 73.125 31.6875C73.125 31.041 72.8682 30.421 72.4111 29.9639C71.954 29.5068 71.334 29.25 70.6875 29.25L65.8125 29.25L65.8125 17.0625C65.8125 15.7696 65.2989 14.5296 64.3846 13.6154C63.4704 12.7011 62.2304 12.1875 60.9375 12.1875L48.75 12.1875L48.75 7.3125C48.75 6.66603 48.4932 6.04605 48.0361 5.58893C47.579 5.13181 46.959 4.875 46.3125 4.875C45.666 4.875 45.046 5.13181 44.5889 5.58893C44.1318 6.04605 43.875 6.66603 43.875 7.3125L43.875 12.1875L34.125 12.1875L34.125 7.3125C34.125 6.66603 33.8682 6.04605 33.4111 5.58893C32.954 5.13181 32.334 4.875 31.6875 4.875C31.041 4.875 30.421 5.13181 29.9639 5.58893C29.5068 6.04605 29.25 6.66603 29.25 7.3125L29.25 12.1875L17.0625 12.1875C15.7696 12.1875 14.5296 12.7011 13.6154 13.6154C12.7011 14.5296 12.1875 15.7696 12.1875 17.0625L12.1875 29.25L7.3125 29.25C6.66603 29.25 6.04605 29.5068 5.58893 29.9639C5.13181 30.421 4.875 31.041 4.875 31.6875C4.875 32.334 5.13181 32.954 5.58893 33.4111C6.04605 33.8682 6.66604 34.125 7.3125 34.125L12.1875 34.125L12.1875 43.875L7.3125 43.875C6.66604 43.875 6.04605 44.1318 5.58893 44.5889C5.13181 45.046 4.875 45.666 4.875 46.3125C4.875 46.959 5.13181 47.579 5.58893 48.0361C6.04605 48.4932 6.66604 48.75 7.3125 48.75L12.1875 48.75L12.1875 60.9375C12.1875 62.2304 12.7011 63.4704 13.6154 64.3846C14.5296 65.2989 15.7696 65.8125 17.0625 65.8125L29.25 65.8125L29.25 70.6875C29.25 71.334 29.5068 71.954 29.9639 72.4111C30.421 72.8682 31.041 73.125 31.6875 73.125C32.334 73.125 32.954 72.8682 33.4111 72.4111C33.8682 71.954 34.125 71.334 34.125 70.6875L34.125 65.8125L43.875 65.8125L43.875 70.6875C43.875 71.334 44.1318 71.954 44.5889 72.4111C45.046 72.8682 45.666 73.125 46.3125 73.125C46.959 73.125 47.579 72.8682 48.0361 72.4111C48.4932 71.954 48.75 71.334 48.75 70.6875L48.75 65.8125L60.9375 65.8125C62.2304 65.8125 63.4704 65.2989 64.3846 64.3846C65.2989 63.4704 65.8125 62.2304 65.8125 60.9375L65.8125 48.75L70.6875 48.75C71.334 48.75 71.954 48.4932 72.4111 48.0361C72.8682 47.579 73.125 46.959 73.125 46.3125C73.125 45.666 72.8682 45.046 72.4111 44.5889C71.954 44.1318 71.334 43.875 70.6875 43.875ZM60.9375 60.9375L17.0625 60.9375L17.0625 17.0625L60.9375 17.0625L60.9375 46.2729C60.9375 46.2729 60.9375 46.3003 60.9375 46.3125C60.9375 46.3247 60.9375 46.3399 60.9375 46.3521L60.9375 60.9375Z" fill="#0F0F0F"/>
</svg>
