<svg width="81" height="81" viewBox="0 0 81 81" fill="none" xmlns="http://www.w3.org/2000/svg">
<path d="M77.4563 47.5875C77.1903 47.7869 76.8877 47.932 76.5657 48.0145C76.2437 48.097 75.9086 48.1153 75.5795 48.0683C75.2505 48.0213 74.9339 47.9099 74.6478 47.7405C74.3618 47.5712 74.1119 47.3471 73.9125 47.0812C72.3868 45.0305 70.401 43.3666 68.1148 42.2235C65.8286 41.0804 63.306 40.49 60.75 40.5C60.2522 40.4999 59.7655 40.3531 59.3508 40.0779C58.936 39.8027 58.6116 39.4113 58.4181 38.9527C58.2867 38.6413 58.219 38.3067 58.219 37.9687C58.219 37.6307 58.2867 37.2961 58.4181 36.9847C58.6116 36.5261 58.936 36.1347 59.3508 35.8595C59.7655 35.5843 60.2522 35.4375 60.75 35.4375C62.1703 35.4373 63.562 35.0389 64.7672 34.2874C65.9724 33.536 66.9426 32.4616 67.5678 31.1864C68.193 29.9111 68.448 28.4861 68.3039 27.0731C68.1598 25.6602 67.6223 24.316 66.7525 23.1932C65.8827 22.0705 64.7155 21.2141 63.3835 20.7215C62.0514 20.2288 60.6078 20.1196 59.2168 20.4062C57.8258 20.6928 56.543 21.3638 55.5142 22.343C54.4854 23.3221 53.7518 24.5701 53.3967 25.9453C53.3136 26.2673 53.1679 26.5698 52.9679 26.8355C52.7679 27.1012 52.5175 27.3249 52.231 27.4939C51.9446 27.6628 51.6276 27.7737 51.2983 27.8201C50.969 27.8666 50.6338 27.8477 50.3118 27.7646C49.9897 27.6815 49.6872 27.5358 49.4215 27.3358C49.1558 27.1358 48.9321 26.8854 48.7632 26.5989C48.5942 26.3125 48.4834 25.9955 48.4369 25.6662C48.3905 25.3369 48.4093 25.0017 48.4924 24.6796C48.9852 22.7727 49.9163 21.0071 51.2116 19.5233C52.5068 18.0396 54.1305 16.8786 55.9534 16.1327C57.7763 15.3869 59.7482 15.0768 61.712 15.2271C63.6758 15.3774 65.5775 15.984 67.2657 16.9986C68.9538 18.0132 70.3819 19.4078 71.4362 21.0714C72.4906 22.735 73.1421 24.6218 73.339 26.5815C73.5358 28.5412 73.2726 30.5198 72.5702 32.3599C71.8678 34.2 70.7456 35.8508 69.293 37.1809C72.7349 38.6711 75.727 41.036 77.972 44.0405C78.1714 44.3071 78.3163 44.6105 78.3983 44.9332C78.4804 45.2558 78.4979 45.5915 78.45 45.921C78.4021 46.2505 78.2897 46.5673 78.1191 46.8532C77.9486 47.1392 77.7234 47.3887 77.4563 47.5875ZM60.4083 67.0781C60.5914 67.3662 60.7144 67.6884 60.7698 68.0252C60.8252 68.3621 60.8119 68.7067 60.7307 69.0382C60.6495 69.3698 60.502 69.6816 60.2972 69.9547C60.0924 70.2278 59.8344 70.4567 59.5389 70.6275C59.2433 70.7984 58.9162 70.9076 58.5773 70.9488C58.2384 70.99 57.8947 70.9622 57.5669 70.867C57.239 70.7719 56.9338 70.6115 56.6695 70.3953C56.4053 70.1792 56.1875 69.9118 56.0292 69.6093C54.4347 66.9093 52.1637 64.6717 49.4405 63.1173C46.7172 61.5629 43.6357 60.7453 40.5 60.7453C37.3643 60.7453 34.2828 61.5629 31.5595 63.1173C28.8363 64.6717 26.5653 66.9093 24.9708 69.6093C24.8125 69.9118 24.5947 70.1792 24.3305 70.3953C24.0662 70.6115 23.761 70.7719 23.4331 70.867C23.1053 70.9622 22.7615 70.99 22.4227 70.9488C22.0838 70.9076 21.7567 70.7984 21.4611 70.6275C21.1656 70.4567 20.9076 70.2278 20.7028 69.9547C20.498 69.6816 20.3505 69.3698 20.2693 69.0382C20.1881 68.7067 20.1748 68.3621 20.2302 68.0252C20.2856 67.6884 20.4086 67.3662 20.5917 67.0781C23.0458 62.8616 26.7876 59.5434 31.2673 57.6112C28.7465 55.6812 26.894 53.0099 25.97 49.9726C25.046 46.9353 25.097 43.6849 26.1159 40.6781C27.1348 37.6713 29.0703 35.0594 31.6503 33.2096C34.2304 31.3597 37.3253 30.3648 40.5 30.3648C43.6747 30.3648 46.7696 31.3597 49.3497 33.2096C51.9297 35.0594 53.8652 37.6713 54.8841 40.6781C55.903 43.6849 55.954 46.9353 55.03 49.9726C54.106 53.0099 52.2535 55.6812 49.7327 57.6112C54.2124 59.5434 57.9542 62.8616 60.4083 67.0781ZM40.5 55.6875C42.5025 55.6875 44.4601 55.0936 46.1251 53.9811C47.7902 52.8685 49.0879 51.2872 49.8543 49.4371C50.6206 47.587 50.8211 45.5512 50.4305 43.5872C50.0398 41.6231 49.0755 39.819 47.6595 38.403C46.2434 36.987 44.4393 36.0227 42.4753 35.632C40.5112 35.2413 38.4754 35.4418 36.6253 36.2082C34.7752 36.9745 33.1939 38.2723 32.0814 39.9373C30.9688 41.6024 30.375 43.5599 30.375 45.5625C30.375 48.2478 31.4417 50.8231 33.3405 52.7219C35.2393 54.6207 37.8147 55.6875 40.5 55.6875ZM22.7813 37.9687C22.7813 37.2974 22.5146 36.6535 22.0399 36.1788C21.5652 35.7041 20.9213 35.4375 20.25 35.4375C18.8297 35.4373 17.438 35.0389 16.2328 34.2874C15.0276 33.536 14.0574 32.4616 13.4322 31.1864C12.807 29.9111 12.552 28.4861 12.6961 27.0731C12.8402 25.6602 13.3777 24.316 14.2475 23.1932C15.1173 22.0705 16.2845 21.2141 17.6165 20.7215C18.9486 20.2288 20.3922 20.1196 21.7832 20.4062C23.1742 20.6928 24.457 21.3638 25.4858 22.343C26.5146 23.3221 27.2482 24.5701 27.6033 25.9453C27.7711 26.5956 28.1904 27.1527 28.769 27.4939C29.3475 27.835 30.0379 27.9324 30.6882 27.7646C31.3386 27.5968 31.8956 27.1775 32.2368 26.5989C32.578 26.0204 32.6754 25.33 32.5076 24.6796C32.0148 22.7727 31.0837 21.0071 29.7884 19.5233C28.4932 18.0396 26.8695 16.8786 25.0466 16.1327C23.2237 15.3869 21.2518 15.0768 19.288 15.2271C17.3241 15.3774 15.4225 15.984 13.7343 16.9986C12.0462 18.0132 10.6181 19.4078 9.56376 21.0714C8.50942 22.735 7.8579 24.6218 7.66104 26.5815C7.46419 28.5412 7.72744 30.5198 8.42983 32.3599C9.13223 34.2 10.2544 35.8508 11.707 37.1809C8.26859 38.6725 5.27991 41.0373 3.0375 44.0405C2.63428 44.5776 2.46093 45.2528 2.55557 45.9177C2.65021 46.5826 3.0051 47.1827 3.54217 47.5859C4.07923 47.9891 4.75447 48.1624 5.41935 48.0678C6.08423 47.9732 6.68428 47.6183 7.0875 47.0812C8.61317 45.0305 10.599 43.3666 12.8852 42.2235C15.1714 41.0804 17.694 40.49 20.25 40.5C20.9213 40.5 21.5652 40.2333 22.0399 39.7586C22.5146 39.2839 22.7813 38.64 22.7813 37.9687Z" fill="black"/>
</svg>
