<svg width="32" height="32" viewBox="0 0 32 32" fill="none" xmlns="http://www.w3.org/2000/svg">
<path d="M26.8438 26.4638L19.0187 14.1663L26.74 5.6725C26.9146 5.47566 27.0046 5.21791 26.9905 4.95515C26.9764 4.69239 26.8592 4.44579 26.6645 4.26882C26.4697 4.09185 26.2131 3.99876 25.9502 4.00974C25.6873 4.02073 25.4393 4.1349 25.26 4.3275L17.905 12.4175L12.8437 4.46375C12.7535 4.32169 12.6288 4.20471 12.4814 4.12365C12.3339 4.04258 12.1683 4.00005 12 4H5.99999C5.82069 3.99991 5.64467 4.04803 5.49035 4.13932C5.33603 4.23062 5.2091 4.36172 5.12284 4.5189C5.03658 4.67609 4.99417 4.85357 5.00004 5.03278C5.00592 5.21198 5.05987 5.3863 5.15624 5.5375L12.9812 17.8338L5.25999 26.3338C5.16983 26.4306 5.09978 26.5444 5.05391 26.6685C5.00805 26.7927 4.98728 26.9247 4.9928 27.0569C4.99832 27.1891 5.03004 27.3189 5.08609 27.4388C5.14215 27.5586 5.22145 27.6662 5.31938 27.7552C5.41731 27.8442 5.53193 27.9129 5.6566 27.9572C5.78127 28.0016 5.91351 28.0208 6.04565 28.0137C6.17779 28.0066 6.3072 27.9733 6.42639 27.9158C6.54558 27.8583 6.65217 27.7777 6.73999 27.6788L14.095 19.5888L19.1562 27.5425C19.2472 27.6834 19.3722 27.7992 19.5196 27.8791C19.6671 27.959 19.8323 28.0006 20 28H26C26.1791 27.9999 26.3549 27.9518 26.509 27.8606C26.6632 27.7693 26.79 27.6384 26.8762 27.4814C26.9624 27.3244 27.0049 27.1472 26.9992 26.9681C26.9935 26.7891 26.9398 26.6149 26.8438 26.4638ZM20.5487 26L7.82124 6H11.4462L24.1788 26H20.5487Z" fill="white" fill-opacity="0.55"/>
</svg>
