<svg width="32" height="32" viewBox="0 0 32 32" fill="none" xmlns="http://www.w3.org/2000/svg">
<path d="M28.7907 9.60385C28.6388 9.04038 28.342 8.52652 27.9298 8.1134C27.5176 7.70029 27.0044 7.40233 26.4413 7.24918C24.3533 6.67585 16 6.66651 16 6.66651C16 6.66651 7.648 6.65718 5.55866 7.20518C4.9959 7.36538 4.48376 7.66755 4.07142 8.08269C3.65908 8.49784 3.36038 9.01201 3.204 9.57585C2.65333 11.6638 2.648 15.9945 2.648 15.9945C2.648 15.9945 2.64266 20.3465 3.18933 22.4132C3.496 23.5558 4.396 24.4585 5.54 24.7665C7.64933 25.3398 15.98 25.3492 15.98 25.3492C15.98 25.3492 24.3333 25.3585 26.4213 24.8118C26.9847 24.659 27.4983 24.3617 27.9115 23.9494C28.3247 23.5371 28.6232 23.0242 28.7773 22.4612C29.3293 20.3745 29.3333 16.0452 29.3333 16.0452C29.3333 16.0452 29.36 11.6918 28.7907 9.60385ZM13.328 20.0065L13.3347 12.0065L20.2773 16.0132L13.328 20.0065Z" fill="white" fill-opacity="0.55"/>
</svg>
